<?xml version="1.0" encoding="UTF-8" standalone="no"?><!DOCTYPE svg PUBLIC "-//W3C//DTD SVG 1.1//EN" "http://www.w3.org/Graphics/SVG/1.1/DTD/svg11.dtd"><svg width="100%" height="100%" viewBox="0 0 250 250" version="1.1" xmlns="http://www.w3.org/2000/svg" xmlns:xlink="http://www.w3.org/1999/xlink" xml:space="preserve" xmlns:serif="http://www.serif.com/" style="fill-rule:evenodd;clip-rule:evenodd;stroke-linejoin:round;stroke-miterlimit:1.41421;"><g><path d="M88.574,44.263l-32.837,25.464l-2.539,-0.44c-1.465,-0.268 -4.419,-0.513 -6.933,-0.61c-4.2,-0.122 -4.468,-0.122 -5.445,0.39c-1.245,0.635 -2.343,2.076 -2.685,3.492c-0.122,0.586 -0.659,3.613 -1.172,6.738l-0.928,5.713l-12.817,9.912c-7.056,5.469 -13.184,10.278 -13.623,10.693c-0.586,0.586 -0.806,1.001 -0.806,1.587c0,0.757 0.855,1.66 10.034,10.864l10.059,10.059l-1.636,9.863c-0.879,5.396 -1.611,10.205 -1.611,10.645c0,1.758 1.855,4.004 3.589,4.37c0.512,0.098 4.052,0.171 7.885,0.171c5.64,-0.025 7.495,-0.122 9.79,-0.513l2.832,-0.464l-1.22,2.564c-1.099,2.368 -1.197,2.661 -1.099,4.077c0.147,2.319 1.465,3.906 3.955,4.736c1.392,0.44 2.393,0.22 6.226,-1.489l3.467,-1.538l30.078,30.078c29.248,29.224 30.102,30.078 31.006,30.078c0.805,0 2.465,-1.123 15.722,-10.766l14.82,-10.791l1.098,0.415c1.319,0.463 2.32,0.488 3.467,0.122c2.124,-0.708 3.296,-2.344 3.613,-5.005c0.098,-0.855 0.293,-1.66 0.415,-1.782c0.122,-0.098 1.856,-1.368 3.858,-2.833l3.662,-2.636l3.662,0.879c4.492,1.074 7.861,1.684 12.842,2.343c12.646,1.661 22.656,1.831 30.566,0.513c12.354,-2.1 20.02,-7.739 22.193,-16.382c0.732,-2.856 0.561,-7.007 -0.391,-9.985c-2.1,-6.494 -6.909,-11.987 -13.233,-15.064c-1.269,-0.61 -2.27,-1.123 -2.221,-1.171c0.049,-0.025 2.929,-2.124 6.421,-4.639c7.715,-5.591 7.69,-5.567 7.69,-6.738c0,-0.855 -0.293,-1.221 -4.516,-5.616l-4.541,-4.712l1,-0.903c1.197,-1.098 1.709,-2.246 1.709,-3.882c0,-1.611 -0.585,-2.685 -2.368,-4.467c-3.906,-3.858 -8.911,-6.25 -13.965,-6.665l-1.928,-0.171l-3.662,-3.809l-3.638,-3.833l0.708,-1.196c1.025,-1.734 4.419,-8.765 5.078,-10.498c0.342,-0.952 0.562,-2.076 0.586,-3.174c0.024,-1.441 -0.073,-1.88 -0.635,-2.808c-1.928,-3.271 -6.152,-4.028 -8.52,-1.538c-1.27,1.318 -1.514,1.904 -1.563,3.858c-0.024,1.586 -0.146,1.928 -1.538,4.687l-1.514,2.979l-3.491,-3.589c-1.928,-1.978 -8.032,-8.325 -13.598,-14.087c-5.542,-5.786 -11.353,-11.792 -12.915,-13.355l-2.808,-2.881l0.928,-1.879c1.806,-3.687 3.589,-5.689 5.029,-5.689c1.123,0 2.686,1.148 5.615,4.15c1.685,1.709 3.394,3.296 3.833,3.516c2.344,1.196 5.664,-0.195 6.763,-2.832c0.928,-2.173 0.415,-3.662 -2.295,-6.86c-5.542,-6.543 -11.475,-9.278 -16.968,-7.862c-3.247,0.855 -6.665,3.54 -8.862,6.958c-0.562,0.879 -1.148,1.783 -1.343,2.051c-0.293,0.415 -1.636,-0.928 -16.626,-16.479c-8.984,-9.326 -16.601,-17.139 -16.968,-17.359c-0.341,-0.244 -0.927,-0.439 -1.269,-0.439c-0.488,0 -9.033,6.518 -33.472,25.464Zm50.025,-3.98l16.333,16.944l-0.684,1.806c-0.928,2.344 -2.246,6.568 -3.003,9.546c-1.196,4.688 -1.44,6.909 -1.44,12.354c0,4.614 0.073,5.444 0.659,8.203c1.147,5.468 3.027,10.058 5.932,14.502c5.03,7.739 12.745,13.501 20.728,15.527c1.709,0.415 2.93,0.562 5.371,0.562l3.198,0.024l-0.879,0.635c-0.463,0.342 -1.538,1.318 -2.392,2.173c-7.398,7.47 -7.153,17.26 0.635,25.659c4.126,4.468 11.963,8.447 18.921,9.619l0.927,0.146l-13.965,10.157l-13.964,10.156l-1.246,-0.244c-3.295,-0.708 -7.739,-2.808 -7.91,-3.76c-0.122,-0.635 2.002,-3.003 4.175,-4.688c3.809,-2.954 8.057,-5.59 9.448,-5.859c2.149,-0.439 4.151,-3.125 4.151,-5.517c-0.025,-2.759 -2.368,-5.152 -5.078,-5.152c-1.172,0 -3.394,0.83 -5.054,1.88c-0.928,0.586 -2.857,1.807 -4.273,2.686c-1.416,0.903 -3.051,2.002 -3.662,2.465l-1.098,0.831l-0.049,-2.906c-0.122,-6.469 -0.903,-14.892 -2.026,-21.313c-1.172,-6.641 -3.589,-15.967 -4.542,-17.407c-0.732,-1.124 -2.685,-2.124 -4.15,-2.124c-1.416,-0.001 -3.393,1.074 -4.199,2.246c-1.05,1.587 -1.026,3.1 0.146,7.421c3.003,11.06 4.444,21.265 4.444,31.69c0,5.908 -0.269,9.18 -1.978,23.34c-0.781,6.64 -1.44,12.524 -1.44,13.086l0,1.025l-14.087,10.278l-14.111,10.254l-28.736,-28.735c-15.82,-15.796 -28.76,-28.784 -28.76,-28.857c0,-0.074 5.738,-2.71 12.769,-5.86c7.007,-3.125 14.282,-6.396 16.162,-7.251c11.548,-5.2 19.043,-8.545 19.092,-8.52c0.049,0.049 4.468,16.674 4.468,16.87c0,0.293 1.831,2.124 2.417,2.417c1.977,1.001 4.516,0.537 5.981,-1.074c1.929,-2.149 1.904,-2.588 -1.172,-14.185c-1.953,-7.397 -2.49,-9.717 -2.319,-10.156c0.61,-1.636 1.562,1.953 -15.698,-58.643l-2.954,-10.351l0.341,-1.319c0.977,-4.175 -3.174,-7.715 -6.982,-5.957c-1.856,0.855 -1.782,0.708 -8.057,14.063c-1.391,2.978 -2.954,6.274 -4.15,8.789c-0.635,1.343 -1.953,4.15 -2.93,6.225c-1.782,3.833 -11.157,23.682 -13.94,29.517l-0.733,1.587l-0.83,-1.196c-0.464,-0.684 -1.489,-1.905 -2.295,-2.759c-0.781,-0.83 -1.391,-1.563 -1.342,-1.587c0.048,-0.049 0.756,-0.513 1.538,-1.025c6.054,-3.98 9.008,-10.23 8.618,-18.311c-0.293,-5.957 -2.1,-10.474 -5.737,-14.209c-1.563,-1.611 -2.881,-2.563 -5.396,-3.931l-1.733,-0.952l9.961,-7.69c5.468,-4.248 19.384,-15.039 30.908,-23.975c11.548,-8.96 21.045,-16.235 21.142,-16.211c0.098,0.049 7.52,7.715 16.529,17.041Zm40.478,41.992l16.016,16.626l-0.781,1.392c-3.296,5.884 -4.371,7.178 -6.958,8.398c-1.294,0.611 -2.027,0.782 -3.711,0.855c-5.054,0.293 -10.205,-2.149 -15.064,-7.129c-5.737,-5.859 -8.667,-13.257 -8.667,-21.851c0,-2.929 0.391,-6.079 1.099,-8.789c0.903,-3.589 1.66,-6.103 1.831,-6.103c0.122,0 7.422,7.471 16.235,16.601Zm-79.59,4.029c4.785,17.968 10.572,40.039 10.669,40.503c0.073,0.464 -0.268,0.634 -11.523,5.688c-1.953,0.855 -4.859,2.173 -6.47,2.905c-17.358,7.813 -29.077,12.964 -29.126,12.793c-0.146,-0.415 1.245,-2.783 2.637,-4.419c2.246,-2.71 4.101,-6.713 4.541,-9.863c0.195,-1.416 0.659,-2.637 2.905,-7.324c0.903,-1.88 1.953,-4.077 2.319,-4.883c0.367,-0.806 3.931,-8.398 7.935,-16.846c4.004,-8.471 7.69,-16.259 8.179,-17.334c0.512,-1.074 1.562,-3.32 2.368,-5.004c0.781,-1.685 1.758,-3.736 2.148,-4.566c0.391,-0.854 0.733,-1.514 0.757,-1.465c0.049,0.049 1.245,4.468 2.661,9.815Zm-44.214,-6.494c2.784,0.976 5.201,2.783 6.324,4.736c1.22,2.1 1.513,3.467 1.513,7.007c0,3.1 -0.048,3.393 -0.683,4.76c-0.952,2.027 -1.636,2.857 -3.369,4.004c-1.831,1.221 -4.688,2.149 -8.033,2.613c-2.71,0.341 -8.056,0.464 -8.056,0.146c0,-0.097 0.781,-4.956 1.733,-10.791l1.758,-10.62l1.929,-1.489l1.953,-1.489l1.733,0.317c0.977,0.171 2.417,0.537 3.198,0.806Zm-22.876,27.172c-1.489,8.985 -2.783,16.309 -2.856,16.309c-0.073,0 -3.711,-3.589 -8.13,-8.008l-7.983,-7.983l10.791,-8.374c5.932,-4.59 10.791,-8.325 10.815,-8.301c0.049,0.049 -1.147,7.397 -2.637,16.357Zm174.317,4.004c-0.025,0.025 -1.441,0.391 -3.125,0.782c-1.685,0.415 -3.638,0.976 -4.321,1.22l-1.246,0.489l1.319,-1.758c0.708,-0.952 1.709,-2.49 2.197,-3.394l0.928,-1.684l2.148,2.148c1.197,1.172 2.124,2.173 2.1,2.197Zm-162.036,2.295c3.686,0.318 5.346,0.659 7.666,1.538c4.931,1.856 7.861,6.031 8.349,11.866l0.171,1.928l-2.514,5.347c-1.368,2.93 -2.662,5.493 -2.857,5.713c-0.488,0.561 -3.296,1.806 -5.347,2.368l-1.733,0.488l-5.176,-5.175l-5.175,-5.176l1.489,-8.887c1.758,-10.645 1.684,-10.254 2.026,-10.254c0.171,0 1.563,0.122 3.101,0.244Zm169.482,8.081c3.101,0.659 3.711,1.123 10.816,8.545c3.637,3.76 6.616,6.934 6.64,7.007c0.049,0.098 -3.174,2.515 -7.153,5.396l-7.202,5.249l-2.368,0.048c-1.294,0.025 -3.272,0.171 -4.395,0.318c-5.322,0.683 -11.621,-0.83 -16.675,-4.029c-1.66,-1.025 -4.956,-4.467 -5.664,-5.883c-1.465,-2.857 -1.074,-5.42 1.196,-7.886c1.563,-1.66 2.906,-2.612 6.495,-4.492c6.958,-3.662 13.696,-5.225 18.31,-4.273Zm-171.362,21.997c-0.659,0.074 -2.393,0.171 -3.882,0.171l-2.686,0.025l0.538,-3.369c0.317,-1.832 0.561,-3.394 0.561,-3.467c0.025,-0.073 1.514,1.367 3.32,3.174l3.296,3.295l-1.147,0.171Zm174.56,14.722c0.904,0.195 2.393,0.732 3.321,1.221c3.051,1.611 6.347,5.542 7.251,8.642c0.537,1.758 0.366,4.663 -0.318,6.006c-1.709,3.321 -6.494,5.884 -13.281,7.08c-3.906,0.708 -10.327,0.977 -15.381,0.659c-6.787,-0.439 -17.798,-1.733 -18.701,-2.221c-0.171,-0.098 5.713,-4.541 14.136,-10.645c13.476,-9.814 14.502,-10.498 15.552,-10.571c0.61,-0.049 1.831,-0.171 2.709,-0.269c2.369,-0.293 2.906,-0.293 4.712,0.098Z" style="fill:#fff;fill-rule:nonzero;"/><path d="M134.644,54.907c-1.539,0.684 -5.127,5.005 -8.033,9.644c-5.371,8.569 -7.983,19.043 -7.251,29.028c0.537,7.251 1.587,11.45 5.86,23.413c6.616,18.579 8.886,27.783 9.204,37.549c0.464,13.208 -4.028,19.702 -15.405,22.241c-6.348,1.416 -9.815,0.611 -10.743,-2.539c-0.879,-2.978 -0.293,-8.813 1.587,-15.503c0.855,-2.954 0.806,-3.906 -0.146,-5.591c-0.635,-1.098 -2.1,-2.099 -3.467,-2.392c-1.221,-0.244 -3.052,0.293 -4.15,1.245c-1.197,1.001 -1.709,2.27 -2.857,6.958c-1.123,4.59 -1.587,7.983 -1.587,11.645c0.025,5.909 1.343,9.693 4.492,12.867c4.151,4.126 10.547,5.2 19.312,3.271c8.374,-1.855 14.258,-5.566 18.286,-11.572c5.298,-7.886 6.348,-19.287 3.198,-34.79c-1.391,-6.885 -4.199,-16.113 -8.496,-28.003c-3.955,-10.986 -4.883,-15.039 -4.883,-21.802c-0.024,-2.222 0.123,-4.907 0.293,-5.981c1.221,-7.569 4.444,-14.331 9.717,-20.435c1.636,-1.88 2.271,-3.149 2.271,-4.59c0,-3.662 -3.907,-6.176 -7.202,-4.663Z" style="fill:#fff;fill-rule:nonzero;"/><path d="M139.038,79.956c-1.684,0.44 -3.149,2.002 -3.54,3.809c-0.269,1.294 -0.244,1.44 1.343,6.933c4.809,16.553 5.224,17.676 6.958,18.823c2.514,1.661 6.225,0.782 7.446,-1.782c0.757,-1.562 0.757,-2.929 0.025,-4.76c-0.367,-0.904 -1.856,-5.762 -3.321,-10.792c-1.465,-5.053 -2.832,-9.497 -3.027,-9.863c-1.026,-2.002 -3.54,-3.003 -5.884,-2.368Z" style="fill:#fff;fill-rule:nonzero;"/></g></svg>